<svg width="16" height="16" viewBox="0 0 16 16" fill="none" xmlns="http://www.w3.org/2000/svg">
<path d="M14.8436 3.17587C15.4303 2.58919 15.4529 1.66379 14.8941 1.10505C14.3354 0.546313 13.41 0.568884 12.8233 1.15556L8.05033 5.92853L3.50465 1.38285C2.94591 0.824105 2.02051 0.846676 1.43383 1.43335C0.847157 2.02003 0.824586 2.94543 1.38333 3.50417L5.92901 8.04985L1.15604 12.8228C0.569365 13.4095 0.546794 14.3349 1.10553 14.8936C1.66428 15.4524 2.58967 15.4298 3.17635 14.8431L7.94932 10.0702L12.495 14.6158C13.0537 15.1746 13.9791 15.152 14.5658 14.5653C15.1525 13.9787 15.1751 13.0533 14.6163 12.4945L10.0706 7.94884L14.8436 3.17587Z" fill="#323232"/>
</svg>
