<svg width="16" height="16" viewBox="0 0 16 16" fill="none" xmlns="http://www.w3.org/2000/svg">
<path d="M11.3456 0.58653L9.83159 2.10056L13.8982 6.16717L15.4122 4.65314C16.1943 3.8711 16.1943 2.60419 15.4122 1.82215L14.1797 0.58653C13.3977 -0.19551 12.1308 -0.19551 11.3487 0.58653H11.3456ZM9.12462 2.80752L1.83288 10.1024C1.50756 10.4277 1.26982 10.8313 1.13843 11.2723L0.0310648 15.0355C-0.0471392 15.3014 0.0248085 15.5861 0.218754 15.78C0.4127 15.9739 0.697363 16.0459 0.960128 15.9708L4.7233 14.8635C5.16437 14.7321 5.56791 14.4943 5.89324 14.169L13.1912 6.87413L9.12462 2.80752Z" fill="white"/>
</svg>
