<svg width="16" height="16" viewBox="0 0 16 16" fill="none" xmlns="http://www.w3.org/2000/svg">
<path d="M4.82857 0.553125L4.57143 1H1.14286C0.510714 1 0 1.44687 0 2C0 2.55312 0.510714 3 1.14286 3H14.8571C15.4893 3 16 2.55312 16 2C16 1.44687 15.4893 1 14.8571 1H11.4286L11.1714 0.553125C10.9786 0.2125 10.5821 0 10.15 0H5.85C5.41786 0 5.02143 0.2125 4.82857 0.553125ZM14.8571 4H1.14286L1.9 14.5938C1.95714 15.3844 2.70714 16 3.61071 16H12.3893C13.2929 16 14.0429 15.3844 14.1 14.5938L14.8571 4Z" fill="white"/>
</svg>
