<svg width="17" height="17" viewBox="0 0 17 17" fill="none" xmlns="http://www.w3.org/2000/svg">
<path d="M5.21175 0.565696L4.94876 1.02273H1.44227C0.795759 1.02273 0.273438 1.47976 0.273438 2.04545C0.273438 2.61115 0.795759 3.06818 1.44227 3.06818H15.4682C16.1148 3.06818 16.6371 2.61115 16.6371 2.04545C16.6371 1.47976 16.1148 1.02273 15.4682 1.02273H11.9617L11.6988 0.565696C11.5015 0.21733 11.0961 0 10.6541 0H6.25639C5.81443 0 5.40899 0.21733 5.21175 0.565696ZM15.4682 4.09091H1.44227L2.21662 14.9254C2.27506 15.734 3.04211 16.3636 3.96621 16.3636H12.9443C13.8684 16.3636 14.6354 15.734 14.6939 14.9254L15.4682 4.09091Z" fill="#BDBDBD"/>
</svg>
